<mxfile host="app.diagrams.net" modified="2024-02-01T07:18:36.746Z" agent="Mozilla/5.0 (Windows NT 10.0; Win64; x64) AppleWebKit/537.36 (KHTML, like Gecko) Chrome/118.0.5993.2469 YaBrowser/23.11.0.2469 Yowser/2.5 Safari/537.36" version="23.1.0" etag="w8vhPsw38ThvM_44m3oT" type="github">
  <diagram name="Страница — 1" id="qSbsMn6zFa4Hr7SdN0Pk">
    <mxGraphModel>
      <root>
        <mxCell id="0" />
        <mxCell id="1" parent="0" />
      </root>
    </mxGraphModel>
  </diagram>
</mxfile>
